<mxfile host="app.diagrams.net" modified="2023-12-08T22:08:14.023Z" agent="Mozilla/5.0 (Macintosh; Intel Mac OS X 10_15_7) AppleWebKit/537.36 (KHTML, like Gecko) Chrome/120.0.0.0 Safari/537.36" version="22.1.7" etag="EGuWTVnZmbRbGHy1EBsn" type="gitlab">
  <diagram name="PÃ¡gina-1" id="uhAjlXJdEZeuP8Zm3Zqt">
    <mxGraphModel>
      <root>
        <mxCell id="0" />
        <mxCell id="1" parent="0" />
      </root>
    </mxGraphModel>
  </diagram>
</mxfile>
